<?xml version="1.0" encoding="utf-8"?>
<!-- Generator: Adobe Illustrator 22.1.0, SVG Export Plug-In . SVG Version: 6.00 Build 0)  -->
<svg version="1.1" id="Слой_1" xmlns="http://www.w3.org/2000/svg" xmlns:xlink="http://www.w3.org/1999/xlink" x="0px" y="0px"
	 viewBox="0 0 430 115" style="enable-background:new 0 0 430 115;" xml:space="preserve">
<style type="text/css">
	.st0{fill:#FFFFFF;}
	.st1{fill:#909090;}
	.st2{clip-path:url(#SVGID_2_);fill:#FFFFFF;}
</style>
<g>
	<g>
		<path class="st0" d="M64,105.3c-4.1,4.1-10.9,4.1-15,0L8.9,65.3c-4.1-4.1-4.1-10.9,0-15L49,10.1c4.1-4.1,10.9-4.1,15,0l40.1,40.1
			c4.1,4.1,4.1,10.9,0,15L64,105.3z"/>
		<path class="st1" d="M64,105.3c-4.1,4.1-10.9,4.1-15,0L8.9,65.3c-4.1-4.1-4.1-10.9,0-15L49,10.1c4.1-4.1,10.9-4.1,15,0l40.1,40.1
			c4.1,4.1,4.1,10.9,0,15L64,105.3z M103.6,64.7c3.9-3.9,3.9-10.2,0-14L63.5,10.6c-3.9-3.9-10.2-3.9-14,0L9.4,50.7
			c-3.9,3.9-3.9,10.2,0,14l40.1,40.1c3.9,3.9,10.2,3.9,14,0L103.6,64.7z"/>
		<path class="st1" d="M101.6,52.7c2.8,2.8,2.8,7.3,0,10l-40.1,40.1c-2.8,2.8-7.3,2.8-10,0L11.4,62.7c-2.8-2.8-2.8-7.3,0-10
			l40.1-40.1c2.8-2.8,7.3-2.8,10,0L101.6,52.7z"/>
		<g>
			<defs>
				<path id="SVGID_1_" d="M101.6,52.7c2.8,2.8,2.8,7.3,0,10l-40.1,40.1c-2.8,2.8-7.3,2.8-10,0L11.4,62.7c-2.8-2.8-2.8-7.3,0-10
					l40.1-40.1c2.8-2.8,7.3-2.8,10,0L101.6,52.7z"/>
			</defs>
			<clipPath id="SVGID_2_">
				<use xlink:href="#SVGID_1_"  style="overflow:visible;"/>
			</clipPath>
			<path class="st2" d="M42.9,33.3c5.9-6.3,18-9.8,26.7-2.7c6.1-5,11.7-4.7,14.5-1.8c2.5,2.6,2.7,8.1-0.7,13.1
				c-2.7,4-6.8,4.1-8.7,2.2c-2-1.9-1.5-7,2.9-10.6c-0.5-0.8-1.5-3.2-6.8,1.5c2.4,7.1-1.1,20-8.1,26.8c-7.6,7.4-17.6,8.7-23.1,5.3
				c-1.1,0.6-2.4,2.4-2.3,3.9c0.1,2.4,4.8,1.6,11.9,1.6c7.1-0.1,12.8-1,16.1,2.8c3.3,3.8,0.8,13.3-2.5,18.2
				c-7.6,11.3-23.4,10.1-28.4,9.8c-6.2-0.4-12.2-1.7-13.5-6.3c-1.4-4.5,0.9-10.8,7-14c-5.3-8,1.3-18.7,7.8-21.4
				C31.7,54.7,35.7,40.9,42.9,33.3z M56,48.6c2.1-7.2,3.5-14.4,0.7-14.4c-3.2-0.1-5.1,5.1-7.1,12.4C47.3,54.3,46.2,60.8,49,61
				C51.9,61.3,53.8,56.1,56,48.6z M33.5,94.1c2.7,1.6,10.7,1.8,16.3,0.7c2.2-0.5,3.8-1.8,4.2-3.7c0.2-1.9-1.5-3-7.1-3.2
				C43,87.8,36.1,87.8,34,89.4C31.8,91.2,32.2,93.4,33.5,94.1z"/>
		</g>
	</g>
	<g>
		<path class="st1" d="M135.3,58.5v1.7h14v1.5c0,7.7-6,13.5-14,13.5c-9.6,0-15.7-6.9-15.7-17.6c0-10.5,6.3-17.6,15.6-17.6
			c7.2,0,12.4,4.2,13.6,10.8l0.1,0.3h1.7l-0.1-0.4c-1.3-7.7-7.1-12.4-15.3-12.4c-10.2,0-17.3,7.9-17.3,19.3
			c0,9.6,5.4,19.3,17.3,19.3c6.5,0,11.8-3.2,14.2-8.5v7.6h1.7V58.5H135.3z"/>
		<path class="st1" d="M182.2,75.6c-0.5-0.7-0.8-4.8-0.8-7.2c0-5.6-1-9-6.1-10.1c4.4-1.5,6.8-4.8,6.7-9.3c-0.2-6.6-3.8-9.6-11.4-9.6
			h-15.1v36.9h1.7v-17h13.3c7.8,0,9.2,2.9,9.2,9c0,2.7,0.1,6.3,0.8,7.7l0.1,0.2h2.1L182.2,75.6z M180.3,48.8c0,6.4-5.1,8.6-9.9,8.6
			h-13.2V41h13.7C177.1,41,180.2,43.6,180.3,48.8z"/>
		<path class="st1" d="M200.4,39.3h-1.8l-15,36.9h1.9l4.8-11.9h17.9l4.8,11.9h1.9L200.4,39.3z M191.1,62.5l8.4-21l8.1,21H191.1z"/>
		<path class="st1" d="M237.1,56.9c3.5-1.1,5.9-4.3,5.9-8.2c0-5.7-4.1-9.4-10.5-9.4h-15.9v36.9h15.3c7.6,0,12.3-3.9,12.3-10.2
			C244.1,61.4,241.3,57.9,237.1,56.9z M232.3,74.4h-14V57.8h14.2c2.3,0,9.9,0.6,9.9,8.2C242.4,71.3,238.6,74.4,232.3,74.4z
			 M232.5,56.1h-14.2V41h14.2c5.5,0,8.8,2.9,8.8,7.6C241.3,53.8,236.9,56.1,232.5,56.1z"/>
		<path class="st1" d="M263.8,38.4c-11.8,0-17,9.7-17,19.3c0,9.6,5.3,19.3,17,19.3c11.8,0,17-9.7,17-19.3
			C280.8,48.1,275.5,38.4,263.8,38.4z M263.8,40.2c9.1,0,15.1,6.9,15.3,17.5c-0.2,10.7-6.2,17.6-15.3,17.6
			c-9.1,0-15.1-6.9-15.3-17.6C248.6,47.1,254.6,40.2,263.8,40.2z"/>
		<path class="st1" d="M299.3,39.3h-15v36.9h1.7V59.7h12.7c7.3,0,11.8-3.9,11.8-10.2C310.7,42.9,306.7,39.3,299.3,39.3z M286.1,41
			h13.3c6.4,0,9.6,2.9,9.6,8.5c0,5.1-3.8,8.4-9.6,8.4h-13.3V41z"/>
		<polygon class="st1" points="315.1,74.4 315.1,39.3 313.4,39.3 313.4,76.2 336.2,76.2 336.2,74.4 		"/>
		<path class="st1" d="M354.3,39.3h-1.8l-15,36.9h1.9l4.8-11.9h17.9l4.8,11.9h1.9L354.3,39.3z M344.9,62.5l8.4-21l8.1,21H344.9z"/>
		<path class="st1" d="M385.7,56.9l-1.6-0.4l-1.7-0.4c-5.6-1.3-10.5-2.4-10.5-8c0-7.4,8.4-7.9,11-7.9c7.3,0,11.2,3.2,11.4,9.6l0,0.3
			h1.7l0-0.4c-0.4-7.4-4.9-11.3-13.1-11.3c-3,0-12.7,0.7-12.7,9.7c0,7.1,6,8.4,11.8,9.7l0.7,0.1c0.7,0.2,1.3,0.3,2,0.5
			c5.1,1.1,10.4,2.3,10.4,8.4c0,6.2-6.1,8.4-11.4,8.4c-8.5,0-12.7-3.9-12.7-11.5v-0.4h-1.7l0,0.4c-0.1,4,1,7.1,3.2,9.4
			c2.5,2.5,6.4,3.8,11.2,3.8c6.5,0,13.1-3.1,13.1-10.1C396.7,59.7,391.6,58.4,385.7,56.9z"/>
		<polygon class="st1" points="397.4,39.3 397.4,41 410.4,41 410.4,76.2 412.2,76.2 412.2,41 425.2,41 425.2,39.3 		"/>
	</g>
</g>
</svg>
