<svg xmlns="http://www.w3.org/2000/svg" viewBox="0 0 583.17 133.699"><defs><style>.a{fill:silver;}.b{fill:#9e9e9e;font-size:33px;font-family:Montserrat-Regular, Montserrat;}.c{fill:#676767;font-size:80px;font-family:Montserrat-Bold, Montserrat;font-weight:700;}</style></defs><g transform="translate(-78.845 -61.504)"><g transform="translate(78.845 61.504)"><path class="a" d="M248.878,44.236c-15.965,5.958-31.93,11.916-47.9,17.08C165.271,73.231,129.139,85.147,93.007,96.666c-15.965,4.766-32.351,7.547-49.156,5.561C20.324,99.446,1.838,81.175.157,58.535-.683,47.413,1,36.689,6.039,26.759,9.82,19.609,15.7,14.446,22.424,10.474c7.983-4.766,22.267-3.178,29.41,3.178,18.066,15.491,25.628,42.1,9.243,65.141-4.2,5.958-15.545,8.738-23.528,5.958C22,79.189,12.341,57.74,18.223,43.441c3.361-7.944,10.083-11.916,18.486-13.9,1.681-.4,3.781-.794,6.3-1.589-5.882-3.575-19.746-.4-23.108,3.972C11.5,43.044,8.98,54.563,15.282,67.273S31.667,87.53,47.213,88.722C66.119,89.913,80.4,82.764,90.907,68.068a7.15,7.15,0,0,0,2.1-2.78c4.622-9.93,13.024-11.122,23.528-12.313,30.25-3.575,60.08-8.341,89.909-12.71,6.722-.794,13.444-1.986,20.587-1.986-17.646,2.78-35.292,5.958-52.937,8.738-22.687,3.972-44.955,8.341-67.642,12.71-2.521.4-4.622,2.383-6.3,3.972-5.882,5.958-10.924,12.71-17.226,17.874-15.965,13.5-44.114,13.9-61.34,1.589A30.083,30.083,0,0,1,9.4,66.082c-2.521-9.533-1.681-19.066,1.26-28.6a16.981,16.981,0,0,1,12.6-11.916c5.882-1.589,12.184-1.986,18.486-2.383,1.681,0,3.781,1.986,5.882,2.78a41.792,41.792,0,0,1-3.361,4.369L30.407,39.866c-11.344,6.752-13.444,17.874-5.882,28.6a46.884,46.884,0,0,0,12.6,11.122c10.5,5.561,19.746,1.986,23.948-8.341C65.7,60.124,65.278,49,62.758,37.483S52.254,19.212,40.91,15.24c-8.4-3.178-16.385-1.192-23.108,3.972C-1.523,35.1-1.523,58.932,9.4,74.026c8.823,12.71,21.427,21.449,39.493,21.449,22.687,0,44.535-2.383,65.962-9.533,37.392-12.313,75.2-23.832,112.6-35.748,7.142-2.383,14.285-4.766,21.007-7.547C248.878,43.838,248.878,43.838,248.878,44.236Z" transform="translate(0.049 22.891)"/><path class="a" d="M204.3,39.323C146.741,28.2,89.182,14.3,29.523,6.355c1.26,4.369,2.1,7.944,3.361,11.122,5.042,13.9,9.243,27.8,8.4,42.5a4.793,4.793,0,0,1-.42,2.383c-2.521-10.724-4.2-21.449-7.562-31.776S24.9,10.327,20.7,0C30.783,1.589,41.707,2.383,52.63,4.766c30.25,6.752,60.08,13.9,90.329,20.654,19.746,4.369,39.073,8.738,58.819,12.71A14.317,14.317,0,0,0,204.3,39.323Z" transform="translate(66.475 0)"/><path class="a" d="M8.2,5.475C14.922,4.283,21.644,3.092,28.787,1.9c0,.4.42.794.42,1.192-2.941,1.192-6.3,2.78-8.823,3.575C29.207,13.022,38.45,18.98,46.853,25.732c7.983,6.355,13.865,13.9,15.965,23.435,3.361,15.491.42,29.393-10.924,41.706.42-1.192,1.26-1.986,1.681-3.178,10.5-17.08,9.663-34.159-2.521-50.047C40.551,22.952,25.846,13.022,8.2,5.475Z" transform="translate(26.458 5.647)"/><path class="a" d="M136.17,19.688c-.42-2.383-.42-3.972-.84-6.355C104.24,11.744,73.57,10.155,42.9,3.8c15.545.794,31.09.794,46.635,1.589,13.865.794,28.149,1.986,42.014,3.178C139.952,9.361,140.792,11.744,136.17,19.688Z" transform="translate(137.545 11.294)"/><path class="a" d="M121.465,10.166c-10.083-8.341-21.007-2.78-31.51-2.383-14.7.4-29.83,1.986-44.955,2.78V8.975c5.882-.794,12.184-1.589,18.066-2.383,16.385-1.986,32.771-3.575,49.156-5.164C116.843,1.031,119.784,3.811,121.465,10.166Z" transform="translate(144.268 4.133)"/><path class="a" d="M17.9,3.1C34.285,17,40.167,35.67,41.848,55.928,36.386,37.259,28.824,19.385,17.9,3.1Z" transform="translate(57.511 9.213)"/></g><text class="b" transform="translate(236.427 187.203)"><tspan x="0" y="0">покриття на підлогу</tspan></text><g transform="translate(369.015 78.508)"><text class="c" transform="translate(0 77)"><tspan x="0" y="0">ТРАЙС</tspan></text></g></g></svg>